<mxfile host="app.diagrams.net" modified="2021-03-26T09:17:23.407Z" agent="5.0 (Windows NT 10.0; Win64; x64) AppleWebKit/537.36 (KHTML, like Gecko) Chrome/89.0.4389.90 Safari/537.36" etag="LcTWnTSy_mxUjHGKoIMS" version="14.5.1" type="github">
  <diagram id="C5RBs43oDa-KdzZeNtuy" name="Page-1">
    <mxGraphModel dx="1673" dy="934" grid="1" gridSize="10" guides="1" tooltips="1" connect="1" arrows="1" fold="1" page="1" pageScale="1" pageWidth="827" pageHeight="1169" math="0" shadow="0">
      <root>
        <mxCell id="WIyWlLk6GJQsqaUBKTNV-0" />
        <mxCell id="WIyWlLk6GJQsqaUBKTNV-1" parent="WIyWlLk6GJQsqaUBKTNV-0" />
        <mxCell id="M6oy6zgyCHTdmUweNoUx-3" style="edgeStyle=orthogonalEdgeStyle;rounded=0;orthogonalLoop=1;jettySize=auto;html=1;entryX=0.5;entryY=0;entryDx=0;entryDy=0;endArrow=classicThin;endFill=1;" edge="1" parent="WIyWlLk6GJQsqaUBKTNV-1" source="WIyWlLk6GJQsqaUBKTNV-3" target="M6oy6zgyCHTdmUweNoUx-1">
          <mxGeometry relative="1" as="geometry" />
        </mxCell>
        <mxCell id="WIyWlLk6GJQsqaUBKTNV-3" value="开始" style="rounded=1;whiteSpace=wrap;html=1;fontSize=12;glass=0;strokeWidth=1;shadow=0;" parent="WIyWlLk6GJQsqaUBKTNV-1" vertex="1">
          <mxGeometry x="90" y="70" width="120" height="40" as="geometry" />
        </mxCell>
        <mxCell id="WIyWlLk6GJQsqaUBKTNV-11" value="结束" style="rounded=1;whiteSpace=wrap;html=1;fontSize=12;glass=0;strokeWidth=1;shadow=0;" parent="WIyWlLk6GJQsqaUBKTNV-1" vertex="1">
          <mxGeometry x="90" y="760" width="120" height="40" as="geometry" />
        </mxCell>
        <mxCell id="M6oy6zgyCHTdmUweNoUx-11" style="edgeStyle=orthogonalEdgeStyle;rounded=0;orthogonalLoop=1;jettySize=auto;html=1;entryX=0.5;entryY=0;entryDx=0;entryDy=0;endArrow=classicThin;endFill=1;" edge="1" parent="WIyWlLk6GJQsqaUBKTNV-1" source="M6oy6zgyCHTdmUweNoUx-1" target="M6oy6zgyCHTdmUweNoUx-4">
          <mxGeometry relative="1" as="geometry" />
        </mxCell>
        <mxCell id="M6oy6zgyCHTdmUweNoUx-1" value="巡检上报" style="rounded=0;whiteSpace=wrap;html=1;" vertex="1" parent="WIyWlLk6GJQsqaUBKTNV-1">
          <mxGeometry x="90" y="160" width="120" height="60" as="geometry" />
        </mxCell>
        <mxCell id="M6oy6zgyCHTdmUweNoUx-16" style="edgeStyle=orthogonalEdgeStyle;rounded=0;orthogonalLoop=1;jettySize=auto;html=1;entryX=1;entryY=0.5;entryDx=0;entryDy=0;endArrow=classicThin;endFill=1;exitX=1;exitY=0.5;exitDx=0;exitDy=0;" edge="1" parent="WIyWlLk6GJQsqaUBKTNV-1" source="M6oy6zgyCHTdmUweNoUx-4" target="M6oy6zgyCHTdmUweNoUx-12">
          <mxGeometry relative="1" as="geometry">
            <Array as="points">
              <mxPoint x="430" y="300" />
              <mxPoint x="430" y="670" />
            </Array>
          </mxGeometry>
        </mxCell>
        <mxCell id="M6oy6zgyCHTdmUweNoUx-17" value="否" style="edgeLabel;html=1;align=center;verticalAlign=middle;resizable=0;points=[];" vertex="1" connectable="0" parent="M6oy6zgyCHTdmUweNoUx-16">
          <mxGeometry x="-0.8956" y="-3" relative="1" as="geometry">
            <mxPoint x="-37.35" y="-13" as="offset" />
          </mxGeometry>
        </mxCell>
        <mxCell id="M6oy6zgyCHTdmUweNoUx-18" style="edgeStyle=orthogonalEdgeStyle;rounded=0;orthogonalLoop=1;jettySize=auto;html=1;entryX=0.5;entryY=0;entryDx=0;entryDy=0;endArrow=classicThin;endFill=1;" edge="1" parent="WIyWlLk6GJQsqaUBKTNV-1" source="M6oy6zgyCHTdmUweNoUx-4" target="M6oy6zgyCHTdmUweNoUx-6">
          <mxGeometry relative="1" as="geometry" />
        </mxCell>
        <mxCell id="M6oy6zgyCHTdmUweNoUx-4" value="是否发现问题" style="rhombus;whiteSpace=wrap;html=1;" vertex="1" parent="WIyWlLk6GJQsqaUBKTNV-1">
          <mxGeometry x="95" y="260" width="110" height="80" as="geometry" />
        </mxCell>
        <mxCell id="M6oy6zgyCHTdmUweNoUx-9" style="edgeStyle=orthogonalEdgeStyle;rounded=0;orthogonalLoop=1;jettySize=auto;html=1;entryX=0.5;entryY=0;entryDx=0;entryDy=0;endArrow=classicThin;endFill=1;" edge="1" parent="WIyWlLk6GJQsqaUBKTNV-1" source="M6oy6zgyCHTdmUweNoUx-6" target="M6oy6zgyCHTdmUweNoUx-7">
          <mxGeometry relative="1" as="geometry" />
        </mxCell>
        <mxCell id="M6oy6zgyCHTdmUweNoUx-23" style="edgeStyle=orthogonalEdgeStyle;rounded=0;orthogonalLoop=1;jettySize=auto;html=1;endArrow=classicThin;endFill=1;" edge="1" parent="WIyWlLk6GJQsqaUBKTNV-1" source="M6oy6zgyCHTdmUweNoUx-6" target="M6oy6zgyCHTdmUweNoUx-22">
          <mxGeometry relative="1" as="geometry" />
        </mxCell>
        <mxCell id="M6oy6zgyCHTdmUweNoUx-6" value="是否可以解决" style="rhombus;whiteSpace=wrap;html=1;" vertex="1" parent="WIyWlLk6GJQsqaUBKTNV-1">
          <mxGeometry x="95" y="390" width="110" height="80" as="geometry" />
        </mxCell>
        <mxCell id="M6oy6zgyCHTdmUweNoUx-13" style="edgeStyle=orthogonalEdgeStyle;rounded=0;orthogonalLoop=1;jettySize=auto;html=1;entryX=0.5;entryY=0;entryDx=0;entryDy=0;endArrow=classicThin;endFill=1;" edge="1" parent="WIyWlLk6GJQsqaUBKTNV-1" source="M6oy6zgyCHTdmUweNoUx-7" target="M6oy6zgyCHTdmUweNoUx-12">
          <mxGeometry relative="1" as="geometry" />
        </mxCell>
        <mxCell id="M6oy6zgyCHTdmUweNoUx-7" value="添加维保记录" style="rounded=0;whiteSpace=wrap;html=1;" vertex="1" parent="WIyWlLk6GJQsqaUBKTNV-1">
          <mxGeometry x="90" y="530" width="120" height="60" as="geometry" />
        </mxCell>
        <mxCell id="M6oy6zgyCHTdmUweNoUx-14" style="edgeStyle=orthogonalEdgeStyle;rounded=0;orthogonalLoop=1;jettySize=auto;html=1;endArrow=classicThin;endFill=1;" edge="1" parent="WIyWlLk6GJQsqaUBKTNV-1" source="M6oy6zgyCHTdmUweNoUx-12" target="WIyWlLk6GJQsqaUBKTNV-11">
          <mxGeometry relative="1" as="geometry" />
        </mxCell>
        <mxCell id="M6oy6zgyCHTdmUweNoUx-12" value="添加巡检记录" style="rounded=0;whiteSpace=wrap;html=1;" vertex="1" parent="WIyWlLk6GJQsqaUBKTNV-1">
          <mxGeometry x="90" y="640" width="120" height="60" as="geometry" />
        </mxCell>
        <mxCell id="M6oy6zgyCHTdmUweNoUx-19" value="是" style="text;html=1;align=center;verticalAlign=middle;resizable=0;points=[];autosize=1;" vertex="1" parent="WIyWlLk6GJQsqaUBKTNV-1">
          <mxGeometry x="145" y="340" width="30" height="20" as="geometry" />
        </mxCell>
        <mxCell id="M6oy6zgyCHTdmUweNoUx-21" value="是" style="text;html=1;align=center;verticalAlign=middle;resizable=0;points=[];autosize=1;" vertex="1" parent="WIyWlLk6GJQsqaUBKTNV-1">
          <mxGeometry x="145" y="470" width="30" height="20" as="geometry" />
        </mxCell>
        <mxCell id="M6oy6zgyCHTdmUweNoUx-22" value="维保上报" style="rounded=0;whiteSpace=wrap;html=1;" vertex="1" parent="WIyWlLk6GJQsqaUBKTNV-1">
          <mxGeometry x="284" y="400" width="120" height="60" as="geometry" />
        </mxCell>
        <mxCell id="M6oy6zgyCHTdmUweNoUx-24" value="否" style="text;html=1;align=center;verticalAlign=middle;resizable=0;points=[];autosize=1;" vertex="1" parent="WIyWlLk6GJQsqaUBKTNV-1">
          <mxGeometry x="195" y="410" width="30" height="20" as="geometry" />
        </mxCell>
        <mxCell id="M6oy6zgyCHTdmUweNoUx-27" style="edgeStyle=orthogonalEdgeStyle;rounded=0;orthogonalLoop=1;jettySize=auto;html=1;entryX=0.5;entryY=0;entryDx=0;entryDy=0;endArrow=classicThin;endFill=1;" edge="1" parent="WIyWlLk6GJQsqaUBKTNV-1" source="M6oy6zgyCHTdmUweNoUx-25" target="M6oy6zgyCHTdmUweNoUx-26">
          <mxGeometry relative="1" as="geometry" />
        </mxCell>
        <mxCell id="M6oy6zgyCHTdmUweNoUx-25" value="开始" style="rounded=1;whiteSpace=wrap;html=1;fontSize=12;glass=0;strokeWidth=1;shadow=0;" vertex="1" parent="WIyWlLk6GJQsqaUBKTNV-1">
          <mxGeometry x="570" y="70" width="120" height="40" as="geometry" />
        </mxCell>
        <mxCell id="M6oy6zgyCHTdmUweNoUx-29" style="edgeStyle=orthogonalEdgeStyle;rounded=0;orthogonalLoop=1;jettySize=auto;html=1;entryX=0.5;entryY=0;entryDx=0;entryDy=0;endArrow=classicThin;endFill=1;" edge="1" parent="WIyWlLk6GJQsqaUBKTNV-1" source="M6oy6zgyCHTdmUweNoUx-26" target="M6oy6zgyCHTdmUweNoUx-28">
          <mxGeometry relative="1" as="geometry" />
        </mxCell>
        <mxCell id="M6oy6zgyCHTdmUweNoUx-26" value="维保上报" style="rounded=0;whiteSpace=wrap;html=1;" vertex="1" parent="WIyWlLk6GJQsqaUBKTNV-1">
          <mxGeometry x="570" y="160" width="120" height="60" as="geometry" />
        </mxCell>
        <mxCell id="M6oy6zgyCHTdmUweNoUx-31" style="edgeStyle=orthogonalEdgeStyle;rounded=0;orthogonalLoop=1;jettySize=auto;html=1;entryX=0.5;entryY=0;entryDx=0;entryDy=0;endArrow=classicThin;endFill=1;" edge="1" parent="WIyWlLk6GJQsqaUBKTNV-1" source="M6oy6zgyCHTdmUweNoUx-28" target="M6oy6zgyCHTdmUweNoUx-30">
          <mxGeometry relative="1" as="geometry" />
        </mxCell>
        <mxCell id="M6oy6zgyCHTdmUweNoUx-28" value="派发维保任务" style="rounded=0;whiteSpace=wrap;html=1;" vertex="1" parent="WIyWlLk6GJQsqaUBKTNV-1">
          <mxGeometry x="570" y="270" width="120" height="60" as="geometry" />
        </mxCell>
        <mxCell id="M6oy6zgyCHTdmUweNoUx-33" style="edgeStyle=orthogonalEdgeStyle;rounded=0;orthogonalLoop=1;jettySize=auto;html=1;endArrow=classicThin;endFill=1;" edge="1" parent="WIyWlLk6GJQsqaUBKTNV-1" source="M6oy6zgyCHTdmUweNoUx-30" target="M6oy6zgyCHTdmUweNoUx-32">
          <mxGeometry relative="1" as="geometry" />
        </mxCell>
        <mxCell id="M6oy6zgyCHTdmUweNoUx-30" value="签收维保任务" style="rounded=0;whiteSpace=wrap;html=1;" vertex="1" parent="WIyWlLk6GJQsqaUBKTNV-1">
          <mxGeometry x="570" y="390" width="120" height="60" as="geometry" />
        </mxCell>
        <mxCell id="M6oy6zgyCHTdmUweNoUx-35" style="edgeStyle=orthogonalEdgeStyle;rounded=0;orthogonalLoop=1;jettySize=auto;html=1;entryX=0.5;entryY=0;entryDx=0;entryDy=0;endArrow=classicThin;endFill=1;" edge="1" parent="WIyWlLk6GJQsqaUBKTNV-1" source="M6oy6zgyCHTdmUweNoUx-32" target="M6oy6zgyCHTdmUweNoUx-34">
          <mxGeometry relative="1" as="geometry" />
        </mxCell>
        <mxCell id="M6oy6zgyCHTdmUweNoUx-32" value="维保反馈" style="rounded=0;whiteSpace=wrap;html=1;" vertex="1" parent="WIyWlLk6GJQsqaUBKTNV-1">
          <mxGeometry x="570" y="505" width="120" height="60" as="geometry" />
        </mxCell>
        <mxCell id="M6oy6zgyCHTdmUweNoUx-34" value="结束" style="rounded=1;whiteSpace=wrap;html=1;fontSize=12;glass=0;strokeWidth=1;shadow=0;" vertex="1" parent="WIyWlLk6GJQsqaUBKTNV-1">
          <mxGeometry x="570" y="625" width="120" height="40" as="geometry" />
        </mxCell>
      </root>
    </mxGraphModel>
  </diagram>
</mxfile>
